<mxfile host="Electron" agent="Mozilla/5.0 (Windows NT 10.0; Win64; x64) AppleWebKit/537.36 (KHTML, like Gecko) draw.io/24.7.17 Chrome/128.0.6613.36 Electron/32.0.1 Safari/537.36" version="24.7.17">
  <diagram name="Page-1" id="zKC87WKS_tH7PSGCvWSB">
    <mxGraphModel dx="4279" dy="2722" grid="1" gridSize="10" guides="1" tooltips="1" connect="1" arrows="1" fold="1" page="1" pageScale="1" pageWidth="827" pageHeight="1169" math="0" shadow="0">
      <root>
        <mxCell id="0" />
        <mxCell id="1" parent="0" />
        <mxCell id="YgQafHrfjeoLJ56BrRcM-13" value="courses" style="swimlane;fontStyle=0;childLayout=stackLayout;horizontal=1;startSize=26;horizontalStack=0;resizeParent=1;resizeParentMax=0;resizeLast=0;collapsible=1;marginBottom=0;align=center;fontSize=14;" parent="1" vertex="1">
          <mxGeometry x="291" y="380" width="160" height="86" as="geometry" />
        </mxCell>
        <mxCell id="YgQafHrfjeoLJ56BrRcM-14" value="&lt;u&gt;name&lt;/u&gt;" style="text;strokeColor=none;fillColor=none;spacingLeft=4;spacingRight=4;overflow=hidden;rotatable=0;points=[[0,0.5],[1,0.5]];portConstraint=eastwest;fontSize=12;whiteSpace=wrap;html=1;" parent="YgQafHrfjeoLJ56BrRcM-13" vertex="1">
          <mxGeometry y="26" width="160" height="30" as="geometry" />
        </mxCell>
        <mxCell id="1_lvm2F6NWayMq0B3zcP-48" value="description" style="text;strokeColor=none;fillColor=none;spacingLeft=4;spacingRight=4;overflow=hidden;rotatable=0;points=[[0,0.5],[1,0.5]];portConstraint=eastwest;fontSize=12;whiteSpace=wrap;html=1;" parent="YgQafHrfjeoLJ56BrRcM-13" vertex="1">
          <mxGeometry y="56" width="160" height="30" as="geometry" />
        </mxCell>
        <mxCell id="YgQafHrfjeoLJ56BrRcM-17" value="rooms" style="swimlane;fontStyle=0;childLayout=stackLayout;horizontal=1;startSize=26;horizontalStack=0;resizeParent=1;resizeParentMax=0;resizeLast=0;collapsible=1;marginBottom=0;align=center;fontSize=14;" parent="1" vertex="1">
          <mxGeometry x="-860" y="-10" width="160" height="56" as="geometry" />
        </mxCell>
        <mxCell id="YgQafHrfjeoLJ56BrRcM-18" value="&lt;u&gt;name&lt;/u&gt;" style="text;strokeColor=none;fillColor=none;spacingLeft=4;spacingRight=4;overflow=hidden;rotatable=0;points=[[0,0.5],[1,0.5]];portConstraint=eastwest;fontSize=12;whiteSpace=wrap;html=1;align=left;" parent="YgQafHrfjeoLJ56BrRcM-17" vertex="1">
          <mxGeometry y="26" width="160" height="30" as="geometry" />
        </mxCell>
        <mxCell id="YgQafHrfjeoLJ56BrRcM-25" value="trimester" style="swimlane;fontStyle=0;childLayout=stackLayout;horizontal=1;startSize=26;horizontalStack=0;resizeParent=1;resizeParentMax=0;resizeLast=0;collapsible=1;marginBottom=0;align=center;fontSize=14;" parent="1" vertex="1">
          <mxGeometry x="-630" y="365" width="160" height="116" as="geometry" />
        </mxCell>
        <mxCell id="YgQafHrfjeoLJ56BrRcM-26" value="&lt;u&gt;name&lt;/u&gt;" style="text;strokeColor=none;fillColor=none;spacingLeft=4;spacingRight=4;overflow=hidden;rotatable=0;points=[[0,0.5],[1,0.5]];portConstraint=eastwest;fontSize=12;whiteSpace=wrap;html=1;" parent="YgQafHrfjeoLJ56BrRcM-25" vertex="1">
          <mxGeometry y="26" width="160" height="30" as="geometry" />
        </mxCell>
        <mxCell id="e6Bd3e4PpB9evffJw5q1-36" value="&lt;u&gt;startdate&lt;/u&gt;" style="text;strokeColor=none;fillColor=none;spacingLeft=4;spacingRight=4;overflow=hidden;rotatable=0;points=[[0,0.5],[1,0.5]];portConstraint=eastwest;fontSize=12;whiteSpace=wrap;html=1;" parent="YgQafHrfjeoLJ56BrRcM-25" vertex="1">
          <mxGeometry y="56" width="160" height="30" as="geometry" />
        </mxCell>
        <mxCell id="YgQafHrfjeoLJ56BrRcM-27" value="&lt;u&gt;enddate&lt;/u&gt;" style="text;strokeColor=none;fillColor=none;spacingLeft=4;spacingRight=4;overflow=hidden;rotatable=0;points=[[0,0.5],[1,0.5]];portConstraint=eastwest;fontSize=12;whiteSpace=wrap;html=1;" parent="YgQafHrfjeoLJ56BrRcM-25" vertex="1">
          <mxGeometry y="86" width="160" height="30" as="geometry" />
        </mxCell>
        <mxCell id="YgQafHrfjeoLJ56BrRcM-31" value="0,n" style="endArrow=none;html=1;rounded=0;" parent="1" source="e6Bd3e4PpB9evffJw5q1-22" target="YgQafHrfjeoLJ56BrRcM-13" edge="1">
          <mxGeometry relative="1" as="geometry">
            <mxPoint x="440" y="380" as="sourcePoint" />
            <mxPoint x="600" y="380" as="targetPoint" />
            <Array as="points">
              <mxPoint x="370" y="550" />
            </Array>
          </mxGeometry>
        </mxCell>
        <mxCell id="e6Bd3e4PpB9evffJw5q1-2" value="classes" style="swimlane;fontStyle=0;childLayout=stackLayout;horizontal=1;startSize=26;horizontalStack=0;resizeParent=1;resizeParentMax=0;resizeLast=0;collapsible=1;marginBottom=0;align=center;fontSize=14;" parent="1" vertex="1">
          <mxGeometry x="-630" y="100" width="160" height="56" as="geometry" />
        </mxCell>
        <mxCell id="e6Bd3e4PpB9evffJw5q1-3" value="name" style="text;strokeColor=none;fillColor=none;spacingLeft=4;spacingRight=4;overflow=hidden;rotatable=0;points=[[0,0.5],[1,0.5]];portConstraint=eastwest;fontSize=12;whiteSpace=wrap;html=1;" parent="e6Bd3e4PpB9evffJw5q1-2" vertex="1">
          <mxGeometry y="26" width="160" height="30" as="geometry" />
        </mxCell>
        <mxCell id="e6Bd3e4PpB9evffJw5q1-7" value="0,n" style="endArrow=none;html=1;rounded=0;" parent="1" source="e6Bd3e4PpB9evffJw5q1-16" target="e6Bd3e4PpB9evffJw5q1-2" edge="1">
          <mxGeometry width="50" height="50" relative="1" as="geometry">
            <mxPoint x="60" y="240" as="sourcePoint" />
            <mxPoint x="110" y="190" as="targetPoint" />
          </mxGeometry>
        </mxCell>
        <mxCell id="e6Bd3e4PpB9evffJw5q1-8" value="marks" style="swimlane;fontStyle=0;childLayout=stackLayout;horizontal=1;startSize=26;horizontalStack=0;resizeParent=1;resizeParentMax=0;resizeLast=0;collapsible=1;marginBottom=0;align=center;fontSize=14;" parent="1" vertex="1">
          <mxGeometry x="-200" y="380" width="160" height="86" as="geometry" />
        </mxCell>
        <mxCell id="e6Bd3e4PpB9evffJw5q1-10" value="name" style="text;strokeColor=none;fillColor=none;spacingLeft=4;spacingRight=4;overflow=hidden;rotatable=0;points=[[0,0.5],[1,0.5]];portConstraint=eastwest;fontSize=12;whiteSpace=wrap;html=1;" parent="e6Bd3e4PpB9evffJw5q1-8" vertex="1">
          <mxGeometry y="26" width="160" height="30" as="geometry" />
        </mxCell>
        <mxCell id="e6Bd3e4PpB9evffJw5q1-9" value="mark" style="text;strokeColor=none;fillColor=none;spacingLeft=4;spacingRight=4;overflow=hidden;rotatable=0;points=[[0,0.5],[1,0.5]];portConstraint=eastwest;fontSize=12;whiteSpace=wrap;html=1;" parent="e6Bd3e4PpB9evffJw5q1-8" vertex="1">
          <mxGeometry y="56" width="160" height="30" as="geometry" />
        </mxCell>
        <mxCell id="e6Bd3e4PpB9evffJw5q1-12" value="0,n" style="endArrow=none;html=1;rounded=0;" parent="1" source="e6Bd3e4PpB9evffJw5q1-14" target="JWKV4LjA2_YWs3GzGq0c-46" edge="1">
          <mxGeometry width="50" height="50" relative="1" as="geometry">
            <mxPoint x="-30" y="240" as="sourcePoint" />
            <mxPoint x="-134.47572815533977" y="-94" as="targetPoint" />
            <Array as="points" />
          </mxGeometry>
        </mxCell>
        <mxCell id="e6Bd3e4PpB9evffJw5q1-13" value="1,1" style="endArrow=none;html=1;rounded=0;" parent="1" source="e6Bd3e4PpB9evffJw5q1-8" target="e6Bd3e4PpB9evffJw5q1-14" edge="1">
          <mxGeometry width="50" height="50" relative="1" as="geometry">
            <mxPoint x="-40" y="280" as="sourcePoint" />
            <mxPoint x="-40" y="156" as="targetPoint" />
          </mxGeometry>
        </mxCell>
        <mxCell id="e6Bd3e4PpB9evffJw5q1-14" value="to have" style="swimlane;childLayout=stackLayout;horizontal=1;startSize=30;horizontalStack=0;rounded=1;fontSize=14;fontStyle=0;strokeWidth=2;resizeParent=0;resizeLast=1;shadow=0;dashed=0;align=center;arcSize=4;whiteSpace=wrap;html=1;" parent="1" vertex="1">
          <mxGeometry x="-200" y="240" width="160" height="60" as="geometry" />
        </mxCell>
        <mxCell id="e6Bd3e4PpB9evffJw5q1-17" value="0,1" style="endArrow=none;html=1;rounded=0;" parent="1" source="jK9dLHoh7pOlT6m2ZuG2-2" target="e6Bd3e4PpB9evffJw5q1-16" edge="1">
          <mxGeometry x="0.0009" width="50" height="50" relative="1" as="geometry">
            <mxPoint x="-94.5454545454545" y="-94" as="sourcePoint" />
            <mxPoint x="130" y="98" as="targetPoint" />
            <Array as="points">
              <mxPoint x="-80" y="-87" />
              <mxPoint x="-80" y="20" />
            </Array>
            <mxPoint as="offset" />
          </mxGeometry>
        </mxCell>
        <mxCell id="e6Bd3e4PpB9evffJw5q1-16" value="to contains" style="swimlane;childLayout=stackLayout;horizontal=1;startSize=30;horizontalStack=0;rounded=1;fontSize=14;fontStyle=0;strokeWidth=2;resizeParent=0;resizeLast=1;shadow=0;dashed=0;align=center;arcSize=4;whiteSpace=wrap;html=1;" parent="1" vertex="1">
          <mxGeometry x="-630" y="-10" width="160" height="60" as="geometry" />
        </mxCell>
        <mxCell id="e6Bd3e4PpB9evffJw5q1-22" value="to contains" style="swimlane;childLayout=stackLayout;horizontal=1;startSize=30;horizontalStack=0;rounded=1;fontSize=14;fontStyle=0;strokeWidth=2;resizeParent=0;resizeLast=1;shadow=0;dashed=0;align=center;arcSize=4;whiteSpace=wrap;html=1;" parent="1" vertex="1">
          <mxGeometry x="20" y="490" width="160" height="120" as="geometry" />
        </mxCell>
        <mxCell id="e6Bd3e4PpB9evffJw5q1-37" value="starttime" style="text;strokeColor=none;fillColor=none;spacingLeft=4;spacingRight=4;overflow=hidden;rotatable=0;points=[[0,0.5],[1,0.5]];portConstraint=eastwest;fontSize=12;whiteSpace=wrap;html=1;" parent="e6Bd3e4PpB9evffJw5q1-22" vertex="1">
          <mxGeometry y="30" width="160" height="30" as="geometry" />
        </mxCell>
        <mxCell id="e6Bd3e4PpB9evffJw5q1-38" value="endtime" style="text;strokeColor=none;fillColor=none;spacingLeft=4;spacingRight=4;overflow=hidden;rotatable=0;points=[[0,0.5],[1,0.5]];portConstraint=eastwest;fontSize=12;whiteSpace=wrap;html=1;" parent="e6Bd3e4PpB9evffJw5q1-22" vertex="1">
          <mxGeometry y="60" width="160" height="30" as="geometry" />
        </mxCell>
        <mxCell id="e6Bd3e4PpB9evffJw5q1-35" value="weekday" style="text;strokeColor=none;fillColor=none;spacingLeft=4;spacingRight=4;overflow=hidden;rotatable=0;points=[[0,0.5],[1,0.5]];portConstraint=eastwest;fontSize=12;whiteSpace=wrap;html=1;" parent="e6Bd3e4PpB9evffJw5q1-22" vertex="1">
          <mxGeometry y="90" width="160" height="30" as="geometry" />
        </mxCell>
        <mxCell id="e6Bd3e4PpB9evffJw5q1-27" value="0,n" style="endArrow=none;html=1;rounded=0;" parent="1" source="YgQafHrfjeoLJ56BrRcM-17" target="e6Bd3e4PpB9evffJw5q1-26" edge="1">
          <mxGeometry relative="1" as="geometry">
            <mxPoint x="800" y="510" as="sourcePoint" />
            <mxPoint x="800" y="400" as="targetPoint" />
          </mxGeometry>
        </mxCell>
        <mxCell id="e6Bd3e4PpB9evffJw5q1-26" value="to be in" style="swimlane;childLayout=stackLayout;horizontal=1;startSize=30;horizontalStack=0;rounded=1;fontSize=14;fontStyle=0;strokeWidth=2;resizeParent=0;resizeLast=1;shadow=0;dashed=0;align=center;arcSize=4;whiteSpace=wrap;html=1;" parent="1" vertex="1">
          <mxGeometry x="-860" y="100" width="160" height="60" as="geometry" />
        </mxCell>
        <mxCell id="e6Bd3e4PpB9evffJw5q1-31" value="to have" style="swimlane;childLayout=stackLayout;horizontal=1;startSize=30;horizontalStack=0;rounded=1;fontSize=14;fontStyle=0;strokeWidth=2;resizeParent=0;resizeLast=1;shadow=0;dashed=0;align=center;arcSize=4;whiteSpace=wrap;html=1;" parent="1" vertex="1">
          <mxGeometry x="20" y="393" width="160" height="60" as="geometry" />
        </mxCell>
        <mxCell id="e6Bd3e4PpB9evffJw5q1-34" value="0,n" style="edgeStyle=orthogonalEdgeStyle;rounded=0;orthogonalLoop=1;jettySize=auto;html=1;endArrow=none;endFill=0;" parent="1" source="YgQafHrfjeoLJ56BrRcM-13" target="e6Bd3e4PpB9evffJw5q1-31" edge="1">
          <mxGeometry relative="1" as="geometry">
            <mxPoint x="-30" y="388" as="sourcePoint" />
            <mxPoint x="70" y="388" as="targetPoint" />
          </mxGeometry>
        </mxCell>
        <mxCell id="1_lvm2F6NWayMq0B3zcP-8" value="addresses" style="swimlane;fontStyle=0;childLayout=stackLayout;horizontal=1;startSize=26;horizontalStack=0;resizeParent=1;resizeParentMax=0;resizeLast=0;collapsible=1;marginBottom=0;align=center;fontSize=14;" parent="1" vertex="1">
          <mxGeometry x="20" y="-620" width="160" height="206" as="geometry" />
        </mxCell>
        <mxCell id="1_lvm2F6NWayMq0B3zcP-9" value="&lt;u&gt;street &amp;amp; number&lt;/u&gt;" style="text;strokeColor=none;fillColor=none;spacingLeft=4;spacingRight=4;overflow=hidden;rotatable=0;points=[[0,0.5],[1,0.5]];portConstraint=eastwest;fontSize=12;whiteSpace=wrap;html=1;fontStyle=0" parent="1_lvm2F6NWayMq0B3zcP-8" vertex="1">
          <mxGeometry y="26" width="160" height="30" as="geometry" />
        </mxCell>
        <mxCell id="1_lvm2F6NWayMq0B3zcP-10" value="&lt;u&gt;locality&lt;/u&gt;" style="text;strokeColor=none;fillColor=none;spacingLeft=4;spacingRight=4;overflow=hidden;rotatable=0;points=[[0,0.5],[1,0.5]];portConstraint=eastwest;fontSize=12;whiteSpace=wrap;html=1;fontStyle=0" parent="1_lvm2F6NWayMq0B3zcP-8" vertex="1">
          <mxGeometry y="56" width="160" height="30" as="geometry" />
        </mxCell>
        <mxCell id="1_lvm2F6NWayMq0B3zcP-11" value="&lt;u&gt;postal code&lt;/u&gt;" style="text;strokeColor=none;fillColor=none;spacingLeft=4;spacingRight=4;overflow=hidden;rotatable=0;points=[[0,0.5],[1,0.5]];portConstraint=eastwest;fontSize=12;whiteSpace=wrap;html=1;fontStyle=0" parent="1_lvm2F6NWayMq0B3zcP-8" vertex="1">
          <mxGeometry y="86" width="160" height="30" as="geometry" />
        </mxCell>
        <mxCell id="1_lvm2F6NWayMq0B3zcP-12" value="&lt;u&gt;administrative area&lt;/u&gt;" style="text;strokeColor=none;fillColor=none;spacingLeft=4;spacingRight=4;overflow=hidden;rotatable=0;points=[[0,0.5],[1,0.5]];portConstraint=eastwest;fontSize=12;whiteSpace=wrap;html=1;fontStyle=0" parent="1_lvm2F6NWayMq0B3zcP-8" vertex="1">
          <mxGeometry y="116" width="160" height="30" as="geometry" />
        </mxCell>
        <mxCell id="1_lvm2F6NWayMq0B3zcP-13" value="&lt;u&gt;country&lt;/u&gt;" style="text;strokeColor=none;fillColor=none;spacingLeft=4;spacingRight=4;overflow=hidden;rotatable=0;points=[[0,0.5],[1,0.5]];portConstraint=eastwest;fontSize=12;whiteSpace=wrap;html=1;fontStyle=0" parent="1_lvm2F6NWayMq0B3zcP-8" vertex="1">
          <mxGeometry y="146" width="160" height="30" as="geometry" />
        </mxCell>
        <mxCell id="1_lvm2F6NWayMq0B3zcP-14" value="&lt;u&gt;premise&lt;/u&gt;" style="text;strokeColor=none;fillColor=none;spacingLeft=4;spacingRight=4;overflow=hidden;rotatable=0;points=[[0,0.5],[1,0.5]];portConstraint=eastwest;fontSize=12;whiteSpace=wrap;html=1;fontStyle=0" parent="1_lvm2F6NWayMq0B3zcP-8" vertex="1">
          <mxGeometry y="176" width="160" height="30" as="geometry" />
        </mxCell>
        <mxCell id="1_lvm2F6NWayMq0B3zcP-18" value="to have" style="swimlane;childLayout=stackLayout;horizontal=1;startSize=30;horizontalStack=0;rounded=1;fontSize=14;fontStyle=0;strokeWidth=2;resizeParent=0;resizeLast=1;shadow=0;dashed=0;align=center;arcSize=4;whiteSpace=wrap;html=1;" parent="1" vertex="1">
          <mxGeometry x="20" y="-310" width="160" height="60" as="geometry" />
        </mxCell>
        <mxCell id="1_lvm2F6NWayMq0B3zcP-19" value="1,n" style="endArrow=none;html=1;rounded=0;" parent="1" source="1_lvm2F6NWayMq0B3zcP-18" target="1_lvm2F6NWayMq0B3zcP-8" edge="1">
          <mxGeometry width="50" height="50" relative="1" as="geometry">
            <mxPoint x="450" y="-19" as="sourcePoint" />
            <mxPoint x="260" y="-116" as="targetPoint" />
          </mxGeometry>
        </mxCell>
        <mxCell id="1_lvm2F6NWayMq0B3zcP-20" value="1,1" style="endArrow=none;html=1;rounded=0;" parent="1" source="jK9dLHoh7pOlT6m2ZuG2-2" target="1_lvm2F6NWayMq0B3zcP-18" edge="1">
          <mxGeometry width="50" height="50" relative="1" as="geometry">
            <mxPoint x="10" y="-118" as="sourcePoint" />
            <mxPoint x="100" y="-139" as="targetPoint" />
          </mxGeometry>
        </mxCell>
        <mxCell id="1_lvm2F6NWayMq0B3zcP-24" value="1,n" style="edgeStyle=orthogonalEdgeStyle;rounded=0;orthogonalLoop=1;jettySize=auto;html=1;endArrow=none;endFill=0;" parent="1" source="e6Bd3e4PpB9evffJw5q1-22" target="YgQafHrfjeoLJ56BrRcM-25" edge="1">
          <mxGeometry relative="1" as="geometry">
            <mxPoint x="150" y="552" as="sourcePoint" />
            <mxPoint x="150" y="418" as="targetPoint" />
          </mxGeometry>
        </mxCell>
        <mxCell id="1_lvm2F6NWayMq0B3zcP-26" value="to teach" style="swimlane;childLayout=stackLayout;horizontal=1;startSize=30;horizontalStack=0;rounded=1;fontSize=14;fontStyle=0;strokeWidth=2;resizeParent=0;resizeLast=1;shadow=0;dashed=0;align=center;arcSize=4;whiteSpace=wrap;html=1;" parent="1" vertex="1">
          <mxGeometry x="291" y="240" width="160" height="60" as="geometry" />
        </mxCell>
        <mxCell id="1_lvm2F6NWayMq0B3zcP-29" value="0,n" style="endArrow=none;html=1;rounded=0;" parent="1" source="1_lvm2F6NWayMq0B3zcP-26" target="JWKV4LjA2_YWs3GzGq0c-53" edge="1">
          <mxGeometry width="50" height="50" relative="1" as="geometry">
            <mxPoint x="100" y="280" as="sourcePoint" />
            <mxPoint x="730" y="-94" as="targetPoint" />
            <Array as="points" />
          </mxGeometry>
        </mxCell>
        <mxCell id="1_lvm2F6NWayMq0B3zcP-30" value="0,n" style="endArrow=none;html=1;rounded=0;" parent="1" source="1_lvm2F6NWayMq0B3zcP-26" target="YgQafHrfjeoLJ56BrRcM-13" edge="1">
          <mxGeometry width="50" height="50" relative="1" as="geometry">
            <mxPoint x="230" y="280" as="sourcePoint" />
            <mxPoint x="530" y="144" as="targetPoint" />
            <Array as="points" />
          </mxGeometry>
        </mxCell>
        <mxCell id="1_lvm2F6NWayMq0B3zcP-33" value="1,1" style="endArrow=none;html=1;rounded=0;" parent="1" source="e6Bd3e4PpB9evffJw5q1-31" target="e6Bd3e4PpB9evffJw5q1-8" edge="1">
          <mxGeometry width="50" height="50" relative="1" as="geometry">
            <mxPoint x="-200" y="500" as="sourcePoint" />
            <mxPoint x="-150" y="450" as="targetPoint" />
          </mxGeometry>
        </mxCell>
        <mxCell id="1_lvm2F6NWayMq0B3zcP-38" value="to be responsible" style="swimlane;childLayout=stackLayout;horizontal=1;startSize=30;horizontalStack=0;rounded=1;fontSize=14;fontStyle=0;strokeWidth=2;resizeParent=0;resizeLast=1;shadow=0;dashed=0;align=center;arcSize=4;whiteSpace=wrap;html=1;" parent="1" vertex="1">
          <mxGeometry x="-380" y="96" width="160" height="60" as="geometry" />
        </mxCell>
        <mxCell id="1_lvm2F6NWayMq0B3zcP-39" value="1,1" style="endArrow=none;html=1;rounded=0;" parent="1" source="e6Bd3e4PpB9evffJw5q1-2" target="1_lvm2F6NWayMq0B3zcP-38" edge="1">
          <mxGeometry width="50" height="50" relative="1" as="geometry">
            <mxPoint x="360" y="10" as="sourcePoint" />
            <mxPoint x="410" y="-40" as="targetPoint" />
          </mxGeometry>
        </mxCell>
        <mxCell id="1_lvm2F6NWayMq0B3zcP-40" value="0,1" style="endArrow=none;html=1;rounded=0;" parent="1" source="JWKV4LjA2_YWs3GzGq0c-53" target="1_lvm2F6NWayMq0B3zcP-38" edge="1">
          <mxGeometry width="50" height="50" relative="1" as="geometry">
            <mxPoint x="702" y="-94" as="sourcePoint" />
            <mxPoint x="450" y="107" as="targetPoint" />
          </mxGeometry>
        </mxCell>
        <mxCell id="1_lvm2F6NWayMq0B3zcP-41" value="to be in" style="swimlane;childLayout=stackLayout;horizontal=1;startSize=30;horizontalStack=0;rounded=1;fontSize=14;fontStyle=0;strokeWidth=2;resizeParent=0;resizeLast=1;shadow=0;dashed=0;align=center;arcSize=4;whiteSpace=wrap;html=1;" parent="1" vertex="1">
          <mxGeometry x="-630" y="230" width="160" height="60" as="geometry" />
        </mxCell>
        <mxCell id="1_lvm2F6NWayMq0B3zcP-42" value="1,n" style="endArrow=none;html=1;rounded=0;" parent="1" source="1_lvm2F6NWayMq0B3zcP-41" target="e6Bd3e4PpB9evffJw5q1-2" edge="1">
          <mxGeometry width="50" height="50" relative="1" as="geometry">
            <mxPoint x="160" y="190" as="sourcePoint" />
            <mxPoint x="210" y="140" as="targetPoint" />
          </mxGeometry>
        </mxCell>
        <mxCell id="1_lvm2F6NWayMq0B3zcP-43" value="1,1" style="endArrow=none;html=1;rounded=0;" parent="1" source="1_lvm2F6NWayMq0B3zcP-41" target="YgQafHrfjeoLJ56BrRcM-25" edge="1">
          <mxGeometry width="50" height="50" relative="1" as="geometry">
            <mxPoint x="329" y="190" as="sourcePoint" />
            <mxPoint x="310" y="134" as="targetPoint" />
            <mxPoint as="offset" />
          </mxGeometry>
        </mxCell>
        <mxCell id="1_lvm2F6NWayMq0B3zcP-49" value="specialization" style="swimlane;fontStyle=0;childLayout=stackLayout;horizontal=1;startSize=26;horizontalStack=0;resizeParent=1;resizeParentMax=0;resizeLast=0;collapsible=1;marginBottom=0;align=center;fontSize=14;" parent="1" vertex="1">
          <mxGeometry x="530" y="217" width="160" height="86" as="geometry" />
        </mxCell>
        <mxCell id="1_lvm2F6NWayMq0B3zcP-50" value="&lt;u&gt;name&lt;/u&gt;" style="text;strokeColor=none;fillColor=none;spacingLeft=4;spacingRight=4;overflow=hidden;rotatable=0;points=[[0,0.5],[1,0.5]];portConstraint=eastwest;fontSize=12;whiteSpace=wrap;html=1;" parent="1_lvm2F6NWayMq0B3zcP-49" vertex="1">
          <mxGeometry y="26" width="160" height="30" as="geometry" />
        </mxCell>
        <mxCell id="1_lvm2F6NWayMq0B3zcP-52" value="desciption" style="text;strokeColor=none;fillColor=none;spacingLeft=4;spacingRight=4;overflow=hidden;rotatable=0;points=[[0,0.5],[1,0.5]];portConstraint=eastwest;fontSize=12;whiteSpace=wrap;html=1;" parent="1_lvm2F6NWayMq0B3zcP-49" vertex="1">
          <mxGeometry y="56" width="160" height="30" as="geometry" />
        </mxCell>
        <mxCell id="1_lvm2F6NWayMq0B3zcP-53" value="to have" style="swimlane;childLayout=stackLayout;horizontal=1;startSize=30;horizontalStack=0;rounded=1;fontSize=14;fontStyle=0;strokeWidth=2;resizeParent=0;resizeLast=1;shadow=0;dashed=0;align=center;arcSize=4;whiteSpace=wrap;html=1;" parent="1" vertex="1">
          <mxGeometry x="530" y="390" width="160" height="60" as="geometry" />
        </mxCell>
        <mxCell id="1_lvm2F6NWayMq0B3zcP-54" value="0,n" style="endArrow=none;html=1;rounded=0;" parent="1" source="1_lvm2F6NWayMq0B3zcP-49" target="1_lvm2F6NWayMq0B3zcP-53" edge="1">
          <mxGeometry width="50" height="50" relative="1" as="geometry">
            <mxPoint x="-250" y="760" as="sourcePoint" />
            <mxPoint x="-200" y="710" as="targetPoint" />
          </mxGeometry>
        </mxCell>
        <mxCell id="1_lvm2F6NWayMq0B3zcP-55" value="0,n" style="endArrow=none;html=1;rounded=0;" parent="1" source="1_lvm2F6NWayMq0B3zcP-53" target="YgQafHrfjeoLJ56BrRcM-13" edge="1">
          <mxGeometry width="50" height="50" relative="1" as="geometry">
            <mxPoint x="-173" y="770" as="sourcePoint" />
            <mxPoint x="-127" y="740" as="targetPoint" />
            <Array as="points" />
          </mxGeometry>
        </mxCell>
        <mxCell id="fVd7F2QuhSh7XxtOsu62-1" value="Project: ROR&lt;br&gt;Author: benjamin fontana&lt;br&gt;Version: V0.2" style="shape=note;size=20;whiteSpace=wrap;html=1;" parent="1" vertex="1">
          <mxGeometry x="-270" y="600" width="176" height="80" as="geometry" />
        </mxCell>
        <mxCell id="fVd7F2QuhSh7XxtOsu62-4" value="to have" style="swimlane;childLayout=stackLayout;horizontal=1;startSize=30;horizontalStack=0;rounded=1;fontSize=14;fontStyle=0;strokeWidth=2;resizeParent=0;resizeLast=1;shadow=0;dashed=0;align=center;arcSize=4;whiteSpace=wrap;html=1;" parent="1" vertex="1">
          <mxGeometry x="-414" y="393" width="160" height="60" as="geometry" />
        </mxCell>
        <mxCell id="fVd7F2QuhSh7XxtOsu62-5" value="1,1" style="endArrow=none;html=1;rounded=0;" parent="1" source="e6Bd3e4PpB9evffJw5q1-8" target="fVd7F2QuhSh7XxtOsu62-4" edge="1">
          <mxGeometry width="50" height="50" relative="1" as="geometry">
            <mxPoint x="-210" y="360" as="sourcePoint" />
            <mxPoint x="-160" y="310" as="targetPoint" />
          </mxGeometry>
        </mxCell>
        <mxCell id="fVd7F2QuhSh7XxtOsu62-6" value="0,n" style="endArrow=none;html=1;rounded=0;" parent="1" source="YgQafHrfjeoLJ56BrRcM-25" target="fVd7F2QuhSh7XxtOsu62-4" edge="1">
          <mxGeometry width="50" height="50" relative="1" as="geometry">
            <mxPoint x="-243" y="433" as="sourcePoint" />
            <mxPoint x="-170" y="433" as="targetPoint" />
          </mxGeometry>
        </mxCell>
        <mxCell id="jK9dLHoh7pOlT6m2ZuG2-1" value="1,1" style="endArrow=none;html=1;rounded=0;" parent="1" source="e6Bd3e4PpB9evffJw5q1-2" target="e6Bd3e4PpB9evffJw5q1-26" edge="1">
          <mxGeometry width="50" height="50" relative="1" as="geometry">
            <mxPoint x="130" y="20" as="sourcePoint" />
            <mxPoint x="180" y="-30" as="targetPoint" />
          </mxGeometry>
        </mxCell>
        <mxCell id="jK9dLHoh7pOlT6m2ZuG2-2" value="people" style="swimlane;fontStyle=0;childLayout=stackLayout;horizontal=1;startSize=26;horizontalStack=0;resizeParent=1;resizeParentMax=0;resizeLast=0;collapsible=1;marginBottom=0;align=center;fontSize=14;" parent="1" vertex="1">
          <mxGeometry x="20" y="-190" width="160" height="206" as="geometry" />
        </mxCell>
        <mxCell id="jK9dLHoh7pOlT6m2ZuG2-3" value="&lt;u&gt;firstname&lt;/u&gt;" style="text;strokeColor=none;fillColor=none;spacingLeft=4;spacingRight=4;overflow=hidden;rotatable=0;points=[[0,0.5],[1,0.5]];portConstraint=eastwest;fontSize=12;whiteSpace=wrap;html=1;" parent="jK9dLHoh7pOlT6m2ZuG2-2" vertex="1">
          <mxGeometry y="26" width="160" height="30" as="geometry" />
        </mxCell>
        <mxCell id="jK9dLHoh7pOlT6m2ZuG2-4" value="&lt;u&gt;lastname&lt;/u&gt;" style="text;strokeColor=none;fillColor=none;spacingLeft=4;spacingRight=4;overflow=hidden;rotatable=0;points=[[0,0.5],[1,0.5]];portConstraint=eastwest;fontSize=12;whiteSpace=wrap;html=1;" parent="jK9dLHoh7pOlT6m2ZuG2-2" vertex="1">
          <mxGeometry y="56" width="160" height="30" as="geometry" />
        </mxCell>
        <mxCell id="jK9dLHoh7pOlT6m2ZuG2-5" value="&lt;u&gt;birthdate&lt;/u&gt;" style="text;strokeColor=none;fillColor=none;spacingLeft=4;spacingRight=4;overflow=hidden;rotatable=0;points=[[0,0.5],[1,0.5]];portConstraint=eastwest;fontSize=12;whiteSpace=wrap;html=1;" parent="jK9dLHoh7pOlT6m2ZuG2-2" vertex="1">
          <mxGeometry y="86" width="160" height="30" as="geometry" />
        </mxCell>
        <mxCell id="jK9dLHoh7pOlT6m2ZuG2-6" value="&lt;u&gt;email&lt;/u&gt;" style="text;strokeColor=none;fillColor=none;spacingLeft=4;spacingRight=4;overflow=hidden;rotatable=0;points=[[0,0.5],[1,0.5]];portConstraint=eastwest;fontSize=12;whiteSpace=wrap;html=1;" parent="jK9dLHoh7pOlT6m2ZuG2-2" vertex="1">
          <mxGeometry y="116" width="160" height="30" as="geometry" />
        </mxCell>
        <mxCell id="jK9dLHoh7pOlT6m2ZuG2-7" value="phone number" style="text;strokeColor=none;fillColor=none;spacingLeft=4;spacingRight=4;overflow=hidden;rotatable=0;points=[[0,0.5],[1,0.5]];portConstraint=eastwest;fontSize=12;whiteSpace=wrap;html=1;" parent="jK9dLHoh7pOlT6m2ZuG2-2" vertex="1">
          <mxGeometry y="146" width="160" height="30" as="geometry" />
        </mxCell>
        <mxCell id="jK9dLHoh7pOlT6m2ZuG2-32" value="IBAN" style="text;strokeColor=none;fillColor=none;spacingLeft=4;spacingRight=4;overflow=hidden;rotatable=0;points=[[0,0.5],[1,0.5]];portConstraint=eastwest;fontSize=12;whiteSpace=wrap;html=1;" parent="jK9dLHoh7pOlT6m2ZuG2-2" vertex="1">
          <mxGeometry y="176" width="160" height="30" as="geometry" />
        </mxCell>
        <mxCell id="jK9dLHoh7pOlT6m2ZuG2-33" value="to have" style="swimlane;childLayout=stackLayout;horizontal=1;startSize=30;horizontalStack=0;rounded=1;fontSize=14;fontStyle=0;strokeWidth=2;resizeParent=0;resizeLast=1;shadow=0;dashed=0;align=center;arcSize=4;whiteSpace=wrap;html=1;" parent="1" vertex="1">
          <mxGeometry x="530" y="96" width="160" height="60" as="geometry" />
        </mxCell>
        <mxCell id="jK9dLHoh7pOlT6m2ZuG2-34" value="0,1" style="endArrow=none;html=1;rounded=0;" parent="1" source="JWKV4LjA2_YWs3GzGq0c-53" target="jK9dLHoh7pOlT6m2ZuG2-33" edge="1">
          <mxGeometry width="50" height="50" relative="1" as="geometry">
            <mxPoint x="230" y="151" as="sourcePoint" />
            <mxPoint x="300" y="151" as="targetPoint" />
          </mxGeometry>
        </mxCell>
        <mxCell id="jK9dLHoh7pOlT6m2ZuG2-35" value="0.n" style="endArrow=none;html=1;rounded=0;" parent="1" source="1_lvm2F6NWayMq0B3zcP-49" target="jK9dLHoh7pOlT6m2ZuG2-33" edge="1">
          <mxGeometry width="50" height="50" relative="1" as="geometry">
            <mxPoint x="230" y="239" as="sourcePoint" />
            <mxPoint x="300" y="239" as="targetPoint" />
          </mxGeometry>
        </mxCell>
        <mxCell id="rEqh5lglt4o-4PGR32V8-1" value="courses_status" style="swimlane;fontStyle=0;childLayout=stackLayout;horizontal=1;startSize=26;horizontalStack=0;resizeParent=1;resizeParentMax=0;resizeLast=0;collapsible=1;marginBottom=0;align=center;fontSize=14;" parent="1" vertex="1">
          <mxGeometry x="530" y="650" width="160" height="56" as="geometry" />
        </mxCell>
        <mxCell id="rEqh5lglt4o-4PGR32V8-2" value="&lt;u&gt;name&lt;/u&gt;" style="text;strokeColor=none;fillColor=none;spacingLeft=4;spacingRight=4;overflow=hidden;rotatable=0;points=[[0,0.5],[1,0.5]];portConstraint=eastwest;fontSize=12;whiteSpace=wrap;html=1;align=left;" parent="rEqh5lglt4o-4PGR32V8-1" vertex="1">
          <mxGeometry y="26" width="160" height="30" as="geometry" />
        </mxCell>
        <mxCell id="rEqh5lglt4o-4PGR32V8-3" value="to have" style="swimlane;childLayout=stackLayout;horizontal=1;startSize=30;horizontalStack=0;rounded=1;fontSize=14;fontStyle=0;strokeWidth=2;resizeParent=0;resizeLast=1;shadow=0;dashed=0;align=center;arcSize=4;whiteSpace=wrap;html=1;" parent="1" vertex="1">
          <mxGeometry x="530" y="520" width="160" height="60" as="geometry" />
        </mxCell>
        <mxCell id="rEqh5lglt4o-4PGR32V8-4" value="1,1" style="endArrow=none;html=1;rounded=0;" parent="1" source="rEqh5lglt4o-4PGR32V8-3" target="YgQafHrfjeoLJ56BrRcM-13" edge="1">
          <mxGeometry width="50" height="50" relative="1" as="geometry">
            <mxPoint x="300" y="595" as="sourcePoint" />
            <mxPoint x="222.07999999999993" y="619.5099999999998" as="targetPoint" />
            <Array as="points">
              <mxPoint x="370" y="550" />
            </Array>
          </mxGeometry>
        </mxCell>
        <mxCell id="rEqh5lglt4o-4PGR32V8-5" value="0,n" style="endArrow=none;html=1;rounded=0;" parent="1" source="rEqh5lglt4o-4PGR32V8-1" target="rEqh5lglt4o-4PGR32V8-3" edge="1">
          <mxGeometry width="50" height="50" relative="1" as="geometry">
            <mxPoint x="325" y="690" as="sourcePoint" />
            <mxPoint x="230" y="638" as="targetPoint" />
            <Array as="points" />
          </mxGeometry>
        </mxCell>
        <mxCell id="JWKV4LjA2_YWs3GzGq0c-46" value="students" style="swimlane;fontStyle=0;childLayout=stackLayout;horizontal=1;startSize=26;horizontalStack=0;resizeParent=1;resizeParentMax=0;resizeLast=0;collapsible=1;marginBottom=0;align=center;fontSize=14;" parent="1" vertex="1">
          <mxGeometry x="20" y="240" width="160" height="56" as="geometry" />
        </mxCell>
        <mxCell id="JWKV4LjA2_YWs3GzGq0c-52" value="status" style="text;strokeColor=none;fillColor=none;spacingLeft=4;spacingRight=4;overflow=hidden;rotatable=0;points=[[0,0.5],[1,0.5]];portConstraint=eastwest;fontSize=12;whiteSpace=wrap;html=1;" parent="JWKV4LjA2_YWs3GzGq0c-46" vertex="1">
          <mxGeometry y="26" width="160" height="30" as="geometry" />
        </mxCell>
        <mxCell id="JWKV4LjA2_YWs3GzGq0c-53" value="employees" style="swimlane;fontStyle=0;childLayout=stackLayout;horizontal=1;startSize=26;horizontalStack=0;resizeParent=1;resizeParentMax=0;resizeLast=0;collapsible=1;marginBottom=0;align=center;fontSize=14;" parent="1" vertex="1">
          <mxGeometry x="291" y="68" width="160" height="116" as="geometry" />
        </mxCell>
        <mxCell id="JWKV4LjA2_YWs3GzGq0c-54" value="IBAN" style="text;strokeColor=none;fillColor=none;spacingLeft=4;spacingRight=4;overflow=hidden;rotatable=0;points=[[0,0.5],[1,0.5]];portConstraint=eastwest;fontSize=12;whiteSpace=wrap;html=1;" parent="JWKV4LjA2_YWs3GzGq0c-53" vertex="1">
          <mxGeometry y="26" width="160" height="30" as="geometry" />
        </mxCell>
        <mxCell id="JWKV4LjA2_YWs3GzGq0c-56" value="type" style="text;strokeColor=none;fillColor=none;spacingLeft=4;spacingRight=4;overflow=hidden;rotatable=0;points=[[0,0.5],[1,0.5]];portConstraint=eastwest;fontSize=12;whiteSpace=wrap;html=1;" parent="JWKV4LjA2_YWs3GzGq0c-53" vertex="1">
          <mxGeometry y="56" width="160" height="30" as="geometry" />
        </mxCell>
        <mxCell id="JWKV4LjA2_YWs3GzGq0c-55" value="s&lt;span style=&quot;background-color: initial;&quot;&gt;tatus&lt;/span&gt;" style="text;strokeColor=none;fillColor=none;spacingLeft=4;spacingRight=4;overflow=hidden;rotatable=0;points=[[0,0.5],[1,0.5]];portConstraint=eastwest;fontSize=12;whiteSpace=wrap;html=1;" parent="JWKV4LjA2_YWs3GzGq0c-53" vertex="1">
          <mxGeometry y="86" width="160" height="30" as="geometry" />
        </mxCell>
        <mxCell id="72j1X1TeBBVRIYq362U_-3" value="" style="group" vertex="1" connectable="0" parent="1">
          <mxGeometry x="80" y="46" width="40" height="30" as="geometry" />
        </mxCell>
        <mxCell id="72j1X1TeBBVRIYq362U_-1" value="" style="shape=or;whiteSpace=wrap;html=1;rotation=-90;" vertex="1" parent="72j1X1TeBBVRIYq362U_-3">
          <mxGeometry x="5" y="-5" width="30" height="40" as="geometry" />
        </mxCell>
        <mxCell id="72j1X1TeBBVRIYq362U_-2" value="T" style="text;html=1;align=center;verticalAlign=middle;resizable=0;points=[];autosize=1;strokeColor=none;fillColor=none;" vertex="1" parent="72j1X1TeBBVRIYq362U_-3">
          <mxGeometry x="5" width="30" height="30" as="geometry" />
        </mxCell>
        <mxCell id="72j1X1TeBBVRIYq362U_-4" style="edgeStyle=orthogonalEdgeStyle;rounded=0;orthogonalLoop=1;jettySize=auto;html=1;endArrow=none;endFill=0;" edge="1" parent="1" source="72j1X1TeBBVRIYq362U_-2" target="jK9dLHoh7pOlT6m2ZuG2-2">
          <mxGeometry relative="1" as="geometry" />
        </mxCell>
        <mxCell id="72j1X1TeBBVRIYq362U_-5" style="edgeStyle=orthogonalEdgeStyle;rounded=0;orthogonalLoop=1;jettySize=auto;html=1;endArrow=none;endFill=0;" edge="1" parent="1" source="72j1X1TeBBVRIYq362U_-2" target="JWKV4LjA2_YWs3GzGq0c-46">
          <mxGeometry relative="1" as="geometry" />
        </mxCell>
        <mxCell id="72j1X1TeBBVRIYq362U_-6" style="edgeStyle=orthogonalEdgeStyle;rounded=0;orthogonalLoop=1;jettySize=auto;html=1;endArrow=none;endFill=0;" edge="1" parent="1" source="72j1X1TeBBVRIYq362U_-2" target="JWKV4LjA2_YWs3GzGq0c-53">
          <mxGeometry relative="1" as="geometry">
            <Array as="points">
              <mxPoint x="371" y="60" />
            </Array>
          </mxGeometry>
        </mxCell>
      </root>
    </mxGraphModel>
  </diagram>
</mxfile>
